<svg width="41" height="48" viewBox="0 0 41 48" fill="none" xmlns="http://www.w3.org/2000/svg">
<path d="M6 0L13.3076 6.91796H33.6924V26.2158L41 33.1338V0H6Z" fill="#AFB1B8"/>
<path d="M0 6.62646V38.8137H34V26.0195L13.5231 6.63443L0 6.62646ZM27.5231 34.1055H5.38008V12.4579H6.9453V32.6397H27.5231V34.1055Z" fill="#AFB1B8"/>
<path d="M9.521 45.1299L10.3389 43.4453H11.0225L9.83105 45.6914V47H9.21094V45.6914L8.01709 43.4453H8.70312L9.521 45.1299ZM13.0317 46.1724H11.6548L11.3667 47H10.7246L12.0674 43.4453H12.6216L13.9668 47H13.3223L13.0317 46.1724ZM11.8281 45.6743H12.8584L12.3433 44.1997L11.8281 45.6743ZM15.4658 46.0405C15.4658 45.8761 15.5106 45.7256 15.6001 45.5889C15.6896 45.4505 15.8662 45.2869 16.1299 45.0981C15.9915 44.924 15.8947 44.7759 15.8394 44.6538C15.7856 44.5317 15.7588 44.4137 15.7588 44.2998C15.7588 44.0215 15.8434 43.8018 16.0127 43.6406C16.182 43.4779 16.4098 43.3965 16.6963 43.3965C16.9551 43.3965 17.1667 43.473 17.3311 43.626C17.4971 43.7773 17.5801 43.9653 17.5801 44.1899C17.5801 44.3381 17.5426 44.4748 17.4678 44.6001C17.3929 44.7238 17.27 44.8475 17.0991 44.9712L16.8574 45.147L17.5435 45.9575C17.6427 45.7622 17.6924 45.5449 17.6924 45.3057H18.2075C18.2075 45.7435 18.105 46.1024 17.8999 46.3823L18.4224 47H17.7339L17.5337 46.7632C17.2798 46.9536 16.9771 47.0488 16.6255 47.0488C16.2739 47.0488 15.9924 46.9561 15.7808 46.7705C15.5708 46.5833 15.4658 46.34 15.4658 46.0405ZM16.6426 46.5752C16.8428 46.5752 17.0299 46.5085 17.2041 46.375L16.4277 45.4595L16.3521 45.5132C16.1567 45.6613 16.0591 45.8306 16.0591 46.021C16.0591 46.1854 16.112 46.3188 16.2178 46.4214C16.3236 46.5239 16.4652 46.5752 16.6426 46.5752ZM16.3154 44.2852C16.3154 44.4219 16.3993 44.5936 16.5669 44.8003L16.8379 44.6147L16.9136 44.5537C17.0145 44.4642 17.0649 44.3494 17.0649 44.2095C17.0649 44.1167 17.0299 44.0378 16.96 43.9727C16.89 43.9059 16.8013 43.8726 16.6938 43.8726C16.5783 43.8726 16.4863 43.9116 16.418 43.9897C16.3496 44.0679 16.3154 44.1663 16.3154 44.2852ZM22.7729 45.8428C22.7371 46.222 22.5972 46.5182 22.353 46.7314C22.1089 46.943 21.7842 47.0488 21.3789 47.0488C21.0957 47.0488 20.8459 46.9821 20.6294 46.8486C20.4146 46.7135 20.2485 46.5223 20.1313 46.2749C20.0142 46.0275 19.9531 45.7402 19.9482 45.4131V45.0811C19.9482 44.7458 20.0076 44.4504 20.1265 44.1948C20.2453 43.9393 20.4154 43.7424 20.6367 43.604C20.8597 43.4657 21.1169 43.3965 21.4082 43.3965C21.8005 43.3965 22.1162 43.5031 22.3555 43.7163C22.5947 43.9295 22.7339 44.2306 22.7729 44.6196H22.1577C22.1284 44.3641 22.0535 44.1802 21.9331 44.0679C21.8143 43.9539 21.6393 43.897 21.4082 43.897C21.1396 43.897 20.9329 43.9954 20.7881 44.1924C20.6449 44.3877 20.5716 44.675 20.5684 45.0542V45.3691C20.5684 45.7533 20.6367 46.0462 20.7734 46.248C20.9118 46.4499 21.1136 46.5508 21.3789 46.5508C21.6214 46.5508 21.8037 46.4963 21.9258 46.3872C22.0479 46.2782 22.1252 46.0967 22.1577 45.8428H22.7729ZM26.1641 45.3154C26.1641 45.6637 26.1038 45.9697 25.9834 46.2334C25.863 46.4954 25.6904 46.6973 25.4658 46.8389C25.2428 46.9788 24.9857 47.0488 24.6943 47.0488C24.4062 47.0488 24.1491 46.9788 23.9229 46.8389C23.6982 46.6973 23.5241 46.4963 23.4004 46.2358C23.2783 45.9754 23.2165 45.6751 23.2148 45.335V45.1348C23.2148 44.7881 23.2759 44.4821 23.3979 44.2168C23.5216 43.9515 23.695 43.7489 23.918 43.6089C24.1426 43.4673 24.3997 43.3965 24.6895 43.3965C24.9792 43.3965 25.2355 43.4665 25.4585 43.6064C25.6831 43.7448 25.8564 43.945 25.9785 44.207C26.1006 44.4674 26.1624 44.771 26.1641 45.1177V45.3154ZM25.5464 45.1299C25.5464 44.736 25.4715 44.4341 25.3218 44.2241C25.1737 44.0142 24.9629 43.9092 24.6895 43.9092C24.4225 43.9092 24.2134 44.0142 24.062 44.2241C23.9123 44.4325 23.8358 44.7279 23.8325 45.1104V45.3154C23.8325 45.7061 23.9082 46.008 24.0596 46.2212C24.2126 46.4344 24.4242 46.541 24.6943 46.541C24.9678 46.541 25.1777 46.4368 25.3242 46.2285C25.4723 46.0202 25.5464 45.7158 25.5464 45.3154V45.1299Z" fill="#AFB1B8"/>
</svg>
