<svg width="68" height="43" viewBox="0 0 68 43" fill="none" xmlns="http://www.w3.org/2000/svg">
<path d="M12.4022 12.8306H12.3995C10.1372 12.8306 8.30322 14.6177 8.30322 16.8223V16.8249C8.30322 19.0295 10.1372 20.8167 12.3995 20.8167H12.4022C14.6645 20.8167 16.4985 19.0295 16.4985 16.8249V16.8223C16.4985 14.6177 14.6645 12.8306 12.4022 12.8306Z" fill="#2196F3"/>
<path d="M42.6368 11.5545C42.6304 8.49242 41.3795 5.55752 39.1579 3.39207C36.9363 1.22661 33.925 0.00695286 30.7828 0V0C27.6397 0.00556265 24.6269 1.22461 22.4041 3.39022C20.1814 5.55582 18.9298 8.49151 18.9233 11.5545V28.4402C18.9233 28.4402 42.6341 25.8667 42.6368 11.5571V11.5545Z" fill="#2196F3"/>
<path d="M0 33.9823C0.00569904 36.1129 0.876556 38.1547 2.42228 39.6615C3.96799 41.1683 6.0629 42.0177 8.24923 42.0239C10.4351 42.0177 12.5296 41.1687 14.0752 39.6625C15.6209 38.1562 16.492 36.1151 16.4985 33.9849V22.2356C16.4985 22.2356 0 24.0276 0 33.9823ZM8.24923 36.0874C7.82198 36.0874 7.40433 35.964 7.04909 35.7326C6.69385 35.5013 6.41697 35.1726 6.25347 34.7879C6.08997 34.4032 6.04719 33.98 6.13054 33.5716C6.2139 33.1632 6.41963 32.7881 6.72174 32.4937C7.02385 32.1993 7.40876 31.9988 7.8278 31.9176C8.24683 31.8364 8.68117 31.8781 9.0759 32.0374C9.47062 32.1967 9.808 32.4665 10.0454 32.8127C10.2827 33.1589 10.4094 33.5659 10.4094 33.9823C10.4105 34.2594 10.3554 34.534 10.2473 34.7903C10.1392 35.0466 9.98028 35.2796 9.77958 35.476C9.57889 35.6723 9.34039 35.828 9.07777 35.9343C8.81516 36.0406 8.53359 36.0953 8.24923 36.0953V36.0874Z" fill="#2196F3"/>
<path d="M24.9473 36.2568H23.2598V38H22.3809V33.7344H25.1582V34.4463H23.2598V35.5479H24.9473V36.2568ZM29.1719 35.9639C29.1719 36.3838 29.0977 36.752 28.9492 37.0684C28.8008 37.3848 28.5879 37.6289 28.3105 37.8008C28.0352 37.9727 27.7188 38.0586 27.3613 38.0586C27.0078 38.0586 26.6924 37.9736 26.415 37.8037C26.1377 37.6338 25.9229 37.3916 25.7705 37.0771C25.6182 36.7607 25.541 36.3975 25.5391 35.9873V35.7764C25.5391 35.3564 25.6143 34.9873 25.7646 34.6689C25.917 34.3486 26.1309 34.1035 26.4062 33.9336C26.6836 33.7617 27 33.6758 27.3555 33.6758C27.7109 33.6758 28.0264 33.7617 28.3018 33.9336C28.5791 34.1035 28.793 34.3486 28.9434 34.6689C29.0957 34.9873 29.1719 35.3555 29.1719 35.7734V35.9639ZM28.2812 35.7705C28.2812 35.3232 28.2012 34.9834 28.041 34.751C27.8809 34.5186 27.6523 34.4023 27.3555 34.4023C27.0605 34.4023 26.833 34.5176 26.6729 34.748C26.5127 34.9766 26.4316 35.3125 26.4297 35.7559V35.9639C26.4297 36.3994 26.5098 36.7373 26.6699 36.9775C26.8301 37.2178 27.0605 37.3379 27.3613 37.3379C27.6562 37.3379 27.8828 37.2227 28.041 36.9922C28.1992 36.7598 28.2793 36.4219 28.2812 35.9785V35.7705ZM32.0225 36.8809C32.0225 36.7148 31.9639 36.5879 31.8467 36.5C31.7295 36.4102 31.5186 36.3164 31.2139 36.2188C30.9092 36.1191 30.668 36.0215 30.4902 35.9258C30.0059 35.6641 29.7637 35.3115 29.7637 34.8682C29.7637 34.6377 29.8281 34.4326 29.957 34.2529C30.0879 34.0713 30.2744 33.9297 30.5166 33.8281C30.7607 33.7266 31.0342 33.6758 31.3369 33.6758C31.6416 33.6758 31.9131 33.7314 32.1514 33.8428C32.3896 33.9521 32.5742 34.1074 32.7051 34.3086C32.8379 34.5098 32.9043 34.7383 32.9043 34.9941H32.0254C32.0254 34.7988 31.9639 34.6475 31.8408 34.54C31.7178 34.4307 31.5449 34.376 31.3223 34.376C31.1074 34.376 30.9404 34.4219 30.8213 34.5137C30.7021 34.6035 30.6426 34.7227 30.6426 34.8711C30.6426 35.0098 30.7119 35.126 30.8506 35.2197C30.9912 35.3135 31.1973 35.4014 31.4688 35.4834C31.9688 35.6338 32.333 35.8203 32.5615 36.043C32.79 36.2656 32.9043 36.543 32.9043 36.875C32.9043 37.2441 32.7646 37.5342 32.4854 37.7451C32.2061 37.9541 31.8301 38.0586 31.3574 38.0586C31.0293 38.0586 30.7305 37.999 30.4609 37.8799C30.1914 37.7588 29.9854 37.5938 29.8428 37.3848C29.7021 37.1758 29.6318 36.9336 29.6318 36.6582H30.5137C30.5137 37.1289 30.7949 37.3643 31.3574 37.3643C31.5664 37.3643 31.7295 37.3223 31.8467 37.2383C31.9639 37.1523 32.0225 37.0332 32.0225 36.8809ZM36.7129 34.4463H35.4062V38H34.5273V34.4463H33.2383V33.7344H36.7129V34.4463ZM39.7832 36.1514H38.0957V37.2939H40.0762V38H37.2168V33.7344H40.0703V34.4463H38.0957V35.4629H39.7832V36.1514ZM42.1709 36.4385H41.4707V38H40.5918V33.7344H42.1768C42.6807 33.7344 43.0693 33.8467 43.3428 34.0713C43.6162 34.2959 43.7529 34.6133 43.7529 35.0234C43.7529 35.3145 43.6895 35.5576 43.5625 35.7529C43.4375 35.9463 43.2471 36.1006 42.9912 36.2158L43.9141 37.959V38H42.9707L42.1709 36.4385ZM41.4707 35.7266H42.1797C42.4004 35.7266 42.5713 35.6709 42.6924 35.5596C42.8135 35.4463 42.874 35.291 42.874 35.0938C42.874 34.8926 42.8164 34.7344 42.7012 34.6191C42.5879 34.5039 42.4131 34.4463 42.1768 34.4463H41.4707V35.7266ZM46.7969 36.4971V38H45.918V33.7344H47.582C47.9023 33.7344 48.1836 33.793 48.4258 33.9102C48.6699 34.0273 48.8574 34.1943 48.9883 34.4111C49.1191 34.626 49.1846 34.8711 49.1846 35.1465C49.1846 35.5645 49.041 35.8945 48.7539 36.1367C48.4688 36.377 48.0732 36.4971 47.5674 36.4971H46.7969ZM46.7969 35.7852H47.582C47.8145 35.7852 47.9912 35.7305 48.1123 35.6211C48.2354 35.5117 48.2969 35.3555 48.2969 35.1523C48.2969 34.9434 48.2354 34.7744 48.1123 34.6455C47.9893 34.5166 47.8193 34.4502 47.6025 34.4463H46.7969V35.7852ZM52.3574 36.1514H50.6699V37.2939H52.6504V38H49.791V33.7344H52.6445V34.4463H50.6699V35.4629H52.3574V36.1514ZM56.4355 34.4463H55.1289V38H54.25V34.4463H52.9609V33.7344H56.4355V34.4463ZM59.5059 36.1514H57.8184V37.2939H59.7988V38H56.9395V33.7344H59.793V34.4463H57.8184V35.4629H59.5059V36.1514ZM61.8936 36.4385H61.1934V38H60.3145V33.7344H61.8994C62.4033 33.7344 62.792 33.8467 63.0654 34.0713C63.3389 34.2959 63.4756 34.6133 63.4756 35.0234C63.4756 35.3145 63.4121 35.5576 63.2852 35.7529C63.1602 35.9463 62.9697 36.1006 62.7139 36.2158L63.6367 37.959V38H62.6934L61.8936 36.4385ZM61.1934 35.7266H61.9023C62.123 35.7266 62.2939 35.6709 62.415 35.5596C62.5361 35.4463 62.5967 35.291 62.5967 35.0938C62.5967 34.8926 62.5391 34.7344 62.4238 34.6191C62.3105 34.5039 62.1357 34.4463 61.8994 34.4463H61.1934V35.7266ZM66.3584 36.8809C66.3584 36.7148 66.2998 36.5879 66.1826 36.5C66.0654 36.4102 65.8545 36.3164 65.5498 36.2188C65.2451 36.1191 65.0039 36.0215 64.8262 35.9258C64.3418 35.6641 64.0996 35.3115 64.0996 34.8682C64.0996 34.6377 64.1641 34.4326 64.293 34.2529C64.4238 34.0713 64.6104 33.9297 64.8525 33.8281C65.0967 33.7266 65.3701 33.6758 65.6729 33.6758C65.9775 33.6758 66.249 33.7314 66.4873 33.8428C66.7256 33.9521 66.9102 34.1074 67.041 34.3086C67.1738 34.5098 67.2402 34.7383 67.2402 34.9941H66.3613C66.3613 34.7988 66.2998 34.6475 66.1768 34.54C66.0537 34.4307 65.8809 34.376 65.6582 34.376C65.4434 34.376 65.2764 34.4219 65.1572 34.5137C65.0381 34.6035 64.9785 34.7227 64.9785 34.8711C64.9785 35.0098 65.0479 35.126 65.1865 35.2197C65.3271 35.3135 65.5332 35.4014 65.8047 35.4834C66.3047 35.6338 66.6689 35.8203 66.8975 36.043C67.126 36.2656 67.2402 36.543 67.2402 36.875C67.2402 37.2441 67.1006 37.5342 66.8213 37.7451C66.542 37.9541 66.166 38.0586 65.6934 38.0586C65.3652 38.0586 65.0664 37.999 64.7969 37.8799C64.5273 37.7588 64.3213 37.5938 64.1787 37.3848C64.0381 37.1758 63.9678 36.9336 63.9678 36.6582H64.8496C64.8496 37.1289 65.1309 37.3643 65.6934 37.3643C65.9023 37.3643 66.0654 37.3223 66.1826 37.2383C66.2998 37.1523 66.3584 37.0332 66.3584 36.8809Z" fill="#2196F3"/>
</svg>
